<svg width="304" height="48" viewBox="0 0 304 48" fill="none" xmlns="http://www.w3.org/2000/svg">
<rect width="141" height="48" rx="10" fill="black"/>
<path d="M25.1651 28.811C24.8882 29.4565 24.5461 30.072 24.1441 30.648C23.6071 31.415 23.1661 31.945 22.8281 32.24C22.3031 32.722 21.7391 32.97 21.1361 32.984C20.7041 32.984 20.1821 32.861 19.5741 32.611C18.9641 32.362 18.4041 32.24 17.8911 32.24C17.3541 32.24 16.7781 32.362 16.1611 32.611C15.5451 32.861 15.0471 32.992 14.6661 33.004C14.0891 33.029 13.5121 32.775 12.9371 32.24C12.5701 31.92 12.1111 31.37 11.5601 30.592C10.9701 29.763 10.4851 28.798 10.1051 27.701C9.69814 26.514 9.49414 25.366 9.49414 24.254C9.49414 22.981 9.76914 21.882 10.3201 20.962C10.7369 20.2395 11.3327 19.6365 12.0501 19.211C12.7576 18.7867 13.5652 18.5582 14.3901 18.549C14.8501 18.549 15.4531 18.691 16.2001 18.971C16.9471 19.251 17.4271 19.393 17.6361 19.393C17.7941 19.393 18.3251 19.226 19.2291 18.895C20.0821 18.588 20.8021 18.461 21.3921 18.511C22.9921 18.64 24.1931 19.27 24.9921 20.406C23.5621 21.273 22.8551 22.486 22.8691 24.043C22.8811 25.256 23.3221 26.265 24.1861 27.066C24.5681 27.4316 25.0138 27.7241 25.5011 27.929C25.3951 28.236 25.2831 28.529 25.1651 28.811ZM21.4981 14.38C21.4981 15.33 21.1501 16.218 20.4591 17.039C19.6231 18.015 18.6131 18.58 17.5181 18.491C17.5038 18.3716 17.4968 18.2513 17.4971 18.131C17.4971 17.218 17.8931 16.242 18.6001 15.443C18.9521 15.039 19.4001 14.702 19.9431 14.434C20.4851 14.17 20.9971 14.024 21.4791 13.999C21.4921 14.127 21.4981 14.254 21.4981 14.38Z" fill="white"/>
<path d="M32.5143 29V25.544L34.4343 23.56L38.1463 29H39.8903L35.4583 22.552L39.6023 18.28H37.8583L34.0343 22.216L32.4503 23.896L32.5143 21.768V18.28H31.1223V29H32.5143ZM43.5819 29.16C45.7259 29.16 47.2459 27.576 47.2459 25.128C47.2459 22.68 45.7259 21.096 43.5819 21.096C41.4379 21.096 39.9339 22.68 39.9339 25.128C39.9339 27.576 41.4379 29.16 43.5819 29.16ZM43.5819 27.992C42.2699 27.992 41.3579 27.08 41.3579 25.128C41.3579 23.16 42.2699 22.264 43.5819 22.264C44.9099 22.264 45.8379 23.16 45.8379 25.128C45.8379 27.08 44.9099 27.992 43.5819 27.992ZM50.4168 29V18.28H49.0247V29H50.4168ZM55.6131 29.16C57.7571 29.16 59.2771 27.576 59.2771 25.128C59.2771 22.68 57.7571 21.096 55.6131 21.096C53.4691 21.096 51.9651 22.68 51.9651 25.128C51.9651 27.576 53.4691 29.16 55.6131 29.16ZM55.6131 27.992C54.3011 27.992 53.3891 27.08 53.3891 25.128C53.3891 23.16 54.3011 22.264 55.6131 22.264C56.9411 22.264 57.8691 23.16 57.8691 25.128C57.8691 27.08 56.9411 27.992 55.6131 27.992ZM66.5716 29V22.344H69.0676V21.256H66.5716V20.424C66.5716 19.688 66.8916 19.272 67.6116 19.272C68.2996 19.272 68.7956 19.688 69.0996 20.248L69.8676 19.256C69.5476 18.76 68.8116 18.12 67.6276 18.12C66.1716 18.12 65.1796 18.984 65.1796 20.536V21.256H63.9156V22.344H65.1796V29H66.5716ZM73.16 29.16C75.304 29.16 76.824 27.576 76.824 25.128C76.824 22.68 75.304 21.096 73.16 21.096C71.016 21.096 69.512 22.68 69.512 25.128C69.512 27.576 71.016 29.16 73.16 29.16ZM73.16 27.992C71.848 27.992 70.936 27.08 70.936 25.128C70.936 23.16 71.848 22.264 73.16 22.264C74.488 22.264 75.416 23.16 75.416 25.128C75.416 27.08 74.488 27.992 73.16 27.992ZM79.9636 29V24.616C79.9636 23.288 80.8596 22.12 81.8516 22.12C82.4116 22.12 82.6516 22.504 82.6516 22.952C82.6516 23.384 82.4436 23.864 82.1876 24.088H83.7076C83.8356 23.896 84.0116 23.416 84.0116 22.76C84.0116 21.672 83.2116 21.08 82.3796 21.08C81.0676 21.08 80.2676 22.12 79.9636 23.32V21.256H78.5716V29H79.9636ZM90.2293 20.008V18.28H88.8372V20.008H90.2293ZM90.2293 29V21.256H88.8372V29H90.2293ZM93.8736 29V25.368H96.7696C98.8816 25.368 100.546 24.2 100.546 21.912C100.546 19.448 98.8816 18.28 96.7696 18.28H92.4816V29H93.8736ZM96.5456 19.512C97.8416 19.512 99.1056 19.992 99.1056 21.912C99.1056 23.656 97.8416 24.136 96.5456 24.136H93.8736V19.512H96.5456ZM103.401 29V24.616C103.401 23.32 103.945 22.28 105.433 22.28C106.745 22.28 107.145 22.984 107.145 23.992V29H108.521V23.656C108.521 22.008 107.577 21.096 106.057 21.096C104.537 21.096 103.705 22.12 103.401 23.32V18.28H102.009V29H103.401ZM113.66 29.16C115.804 29.16 117.324 27.576 117.324 25.128C117.324 22.68 115.804 21.096 113.66 21.096C111.516 21.096 110.012 22.68 110.012 25.128C110.012 27.576 111.516 29.16 113.66 29.16ZM113.66 27.992C112.348 27.992 111.436 27.08 111.436 25.128C111.436 23.16 112.348 22.264 113.66 22.264C114.988 22.264 115.916 23.16 115.916 25.128C115.916 27.08 114.988 27.992 113.66 27.992ZM120.464 29V24.616C120.464 23.32 121.008 22.28 122.496 22.28C123.808 22.28 124.208 22.984 124.208 23.992V29H125.584V23.656C125.584 22.008 124.64 21.096 123.12 21.096C121.6 21.096 120.768 22.12 120.464 23.32V21.256H119.072V29H120.464ZM130.915 29.16C132.595 29.16 133.667 28.376 134.243 27.448L133.395 26.488C133.091 27.16 132.467 28.008 130.915 28.008C129.539 28.008 128.627 27.08 128.547 25.448H134.291C134.323 25.304 134.355 25.064 134.355 24.824C134.355 22.552 133.027 21.096 130.835 21.096C128.707 21.096 127.203 22.68 127.203 25.128C127.203 27.592 128.723 29.16 130.915 29.16ZM130.835 22.264C132.131 22.264 132.963 23.016 133.107 24.44H128.579C128.755 23 129.587 22.264 130.835 22.264Z" fill="white"/>
<rect x="155" width="149" height="48" rx="10" fill="black"/>
<path d="M177.701 27.6674C180.744 26.1063 183.051 24.9167 183.25 24.8242C183.886 24.5082 184.543 23.6717 183.25 23.0219C182.832 22.8176 180.585 21.665 177.701 20.1787L173.703 23.9508L177.701 27.6673V27.6674Z" fill="#FFD900"/>
<path d="M173.704 23.9512L160.975 35.9374C161.273 35.9744 161.611 35.9004 162.008 35.6961C162.843 35.2691 171.694 30.753 177.701 27.6686L173.704 23.9512Z" fill="#F43249"/>
<path d="M173.704 23.9513L177.702 20.1977C177.702 20.1977 162.904 12.6525 162.009 12.2071C161.671 12.0205 161.293 11.965 160.955 12.0205L173.704 23.9513Z" fill="#00EE76"/>
<path d="M173.704 23.9513L160.955 12.0205C160.437 12.1323 160 12.5594 160 13.4328V34.5252C160 35.3247 160.338 35.9005 160.974 35.956L173.704 23.9513Z" fill="#00D3FF"/>
<path d="M188.889 29V25.544L190.809 23.56L194.521 29H196.265L191.833 22.552L195.977 18.28H194.233L190.409 22.216L188.825 23.896L188.889 21.768V18.28H187.497V29H188.889ZM199.957 29.16C202.101 29.16 203.621 27.576 203.621 25.128C203.621 22.68 202.101 21.096 199.957 21.096C197.813 21.096 196.309 22.68 196.309 25.128C196.309 27.576 197.813 29.16 199.957 29.16ZM199.957 27.992C198.645 27.992 197.733 27.08 197.733 25.128C197.733 23.16 198.645 22.264 199.957 22.264C201.285 22.264 202.213 23.16 202.213 25.128C202.213 27.08 201.285 27.992 199.957 27.992ZM206.792 29V18.28H205.4V29H206.792ZM211.988 29.16C214.132 29.16 215.652 27.576 215.652 25.128C215.652 22.68 214.132 21.096 211.988 21.096C209.844 21.096 208.34 22.68 208.34 25.128C208.34 27.576 209.844 29.16 211.988 29.16ZM211.988 27.992C210.676 27.992 209.764 27.08 209.764 25.128C209.764 23.16 210.676 22.264 211.988 22.264C213.316 22.264 214.244 23.16 214.244 25.128C214.244 27.08 213.316 27.992 211.988 27.992ZM222.947 29V22.344H225.443V21.256H222.947V20.424C222.947 19.688 223.267 19.272 223.987 19.272C224.675 19.272 225.171 19.688 225.475 20.248L226.243 19.256C225.923 18.76 225.187 18.12 224.003 18.12C222.547 18.12 221.555 18.984 221.555 20.536V21.256H220.291V22.344H221.555V29H222.947ZM229.535 29.16C231.679 29.16 233.199 27.576 233.199 25.128C233.199 22.68 231.679 21.096 229.535 21.096C227.391 21.096 225.887 22.68 225.887 25.128C225.887 27.576 227.391 29.16 229.535 29.16ZM229.535 27.992C228.223 27.992 227.311 27.08 227.311 25.128C227.311 23.16 228.223 22.264 229.535 22.264C230.863 22.264 231.791 23.16 231.791 25.128C231.791 27.08 230.863 27.992 229.535 27.992ZM236.339 29V24.616C236.339 23.288 237.235 22.12 238.227 22.12C238.787 22.12 239.027 22.504 239.027 22.952C239.027 23.384 238.819 23.864 238.563 24.088H240.083C240.211 23.896 240.387 23.416 240.387 22.76C240.387 21.672 239.587 21.08 238.755 21.08C237.443 21.08 236.643 22.12 236.339 23.32V21.256H234.947V29H236.339ZM245.708 29L246.876 26.008H251.564L252.732 29H254.268L249.948 18.28H248.556L244.236 29H245.708ZM248.684 21.384L249.228 19.704L249.756 21.384L251.084 24.776H247.356L248.684 21.384ZM256.573 29V24.616C256.573 23.32 257.117 22.28 258.605 22.28C259.917 22.28 260.317 22.984 260.317 23.992V29H261.693V23.656C261.693 22.008 260.749 21.096 259.229 21.096C257.709 21.096 256.877 22.12 256.573 23.32V21.256H255.181V29H256.573ZM266.464 29.192C267.952 29.192 268.688 28.2 268.96 27.016V29H270.352V18.28H268.96V23.272C268.688 22.088 267.952 21.096 266.464 21.096C264.512 21.096 263.296 22.696 263.296 25.144C263.296 27.592 264.512 29.192 266.464 29.192ZM264.704 25.144C264.704 23.176 265.712 22.28 266.928 22.28C268.416 22.28 268.96 23.32 268.96 24.6V25.704C268.96 26.984 268.416 28.024 266.928 28.024C265.712 28.024 264.704 27.128 264.704 25.144ZM273.854 29V24.616C273.854 23.288 274.75 22.12 275.742 22.12C276.302 22.12 276.542 22.504 276.542 22.952C276.542 23.384 276.334 23.864 276.078 24.088H277.598C277.726 23.896 277.902 23.416 277.902 22.76C277.902 21.672 277.102 21.08 276.27 21.08C274.958 21.08 274.158 22.12 273.854 23.32V21.256H272.462V29H273.854ZM282.113 29.16C284.257 29.16 285.777 27.576 285.777 25.128C285.777 22.68 284.257 21.096 282.113 21.096C279.969 21.096 278.465 22.68 278.465 25.128C278.465 27.576 279.969 29.16 282.113 29.16ZM282.113 27.992C280.801 27.992 279.889 27.08 279.889 25.128C279.889 23.16 280.801 22.264 282.113 22.264C283.441 22.264 284.369 23.16 284.369 25.128C284.369 27.08 283.441 27.992 282.113 27.992ZM288.948 20.008V18.28H287.556V20.008H288.948ZM288.948 29V21.256H287.556V29H288.948ZM293.776 29.192C295.264 29.192 296 28.2 296.272 27.016V29H297.664V18.28H296.272V23.272C296 22.088 295.264 21.096 293.776 21.096C291.824 21.096 290.608 22.696 290.608 25.144C290.608 27.592 291.824 29.192 293.776 29.192ZM292.016 25.144C292.016 23.176 293.024 22.28 294.24 22.28C295.728 22.28 296.272 23.32 296.272 24.6V25.704C296.272 26.984 295.728 28.024 294.24 28.024C293.024 28.024 292.016 27.128 292.016 25.144Z" fill="white"/>
</svg>
