<?xml version="1.0" encoding="utf-8"?>
<!-- Generator: Adobe Illustrator 23.0.3, SVG Export Plug-In . SVG Version: 6.00 Build 0)  -->
<svg version="1.2" baseProfile="tiny"
	 id="svg2" xmlns:cc="http://creativecommons.org/ns#" xmlns:dc="http://purl.org/dc/elements/1.1/" xmlns:inkscape="http://www.inkscape.org/namespaces/inkscape" xmlns:rdf="http://www.w3.org/1999/02/22-rdf-syntax-ns#" xmlns:sodipodi="http://sodipodi.sourceforge.net/DTD/sodipodi-0.dtd" xmlns:svg="http://www.w3.org/2000/svg"
	 xmlns="http://www.w3.org/2000/svg" xmlns:xlink="http://www.w3.org/1999/xlink" x="0px" y="0px" viewBox="0 0 885.8 165.6"
	 xml:space="preserve">
<path id="path3356" inkscape:connector-curvature="0" fill="#86BC24" d="M838.9,142.1c0-13,10.5-23.5,23.5-23.5
	c13,0,23.5,10.5,23.5,23.5c0,13-10.5,23.5-23.5,23.5C849.4,165.6,838.9,155.1,838.9,142.1"/>
<path id="path3360" inkscape:connector-curvature="0" fill="#0F0B0B" d="M90.1,80c0-14.9-2.9-25.9-8.6-33.1
	C75.7,39.7,67,36.1,55.3,36.1H42.8V127h9.5c13,0,22.6-3.9,28.6-11.6C87.1,107.7,90.1,95.9,90.1,80 M134.6,78.4
	c0,27.1-7.3,48-21.8,62.6c-14.6,14.7-35,22-61.4,22H0V0.7h54.9c25.4,0,45.1,6.7,58.9,20C127.6,34,134.6,53.2,134.6,78.4"/>
<path id="path3362" inkscape:connector-curvature="0" fill="#0F0B0B" d="M276.6,163h40.8V0h-40.8V163z"/>
<path id="path3366" inkscape:connector-curvature="0" fill="#0F0B0B" d="M374.8,102.2c0,10.4,1.4,18.3,4.1,23.8
	c2.7,5.5,7.3,8.2,13.7,8.2c6.3,0,10.8-2.7,13.4-8.2c2.6-5.4,3.9-13.4,3.9-23.8c0-10.3-1.3-18.1-4-23.4c-2.6-5.3-7.2-7.9-13.6-7.9
	c-6.3,0-10.7,2.6-13.5,7.9C376.1,84,374.8,91.8,374.8,102.2 M451.4,102.2c0,19.8-5.2,35.3-15.6,46.3c-10.4,11.1-25,16.6-43.7,16.6
	c-17.9,0-32.2-5.7-42.8-17c-10.6-11.3-15.9-26.6-15.9-46c0-19.7,5.2-35.1,15.6-46c10.4-10.9,25-16.4,43.8-16.4
	c11.6,0,21.9,2.5,30.8,7.6c8.9,5.1,15.8,12.3,20.6,21.8C448.9,78.6,451.4,89.6,451.4,102.2"/>
<path id="path3370" inkscape:connector-curvature="0" fill="#0F0B0B" d="M467.6,163h40.8v-62.4V41.9h-40.8V163z"/>
<path id="path3372" inkscape:connector-curvature="0" fill="#0F0B0B" d="M467.6,27.3h40.8V0h-40.8V27.3z"/>
<path id="path3376" inkscape:connector-curvature="0" fill="#0F0B0B" d="M591.1,132.1c5.5,0,12.1-1.4,19.7-4.2v30.5
	c-5.5,2.4-10.7,4.2-15.7,5.2c-5,1-10.8,1.6-17.5,1.6c-13.7,0-23.6-3.4-29.6-10.3c-6-6.9-9.1-17.4-9.1-31.7V73.3h-14.3V41.9h14.3V11
	L580,3.9v38.1h26v31.3h-26v47.1C580,128.2,583.7,132.1,591.1,132.1"/>
<path id="path3380" inkscape:connector-curvature="0" fill="#0F0B0B" d="M685.5,132.1c5.5,0,12.1-1.4,19.7-4.2v30.5
	c-5.5,2.4-10.7,4.2-15.7,5.2c-5,1-10.8,1.6-17.5,1.6c-13.7,0-23.6-3.4-29.6-10.3c-6.1-6.9-9.1-17.4-9.1-31.7V73.3H619V41.9h14.3
	V10.6l41.1-6.7v38.1h26.1v31.3h-26.1v47.1C674.5,128.2,678.2,132.1,685.5,132.1"/>
<path id="path3384" inkscape:connector-curvature="0" fill="#0F0B0B" d="M756.8,87.5c0.6-6.6,2.5-11.5,5.7-14.6
	c3.2-3.1,7.3-4.6,12.1-4.6c5.2,0,9.4,1.7,12.5,5.2c3.1,3.5,4.7,8.2,4.9,14L756.8,87.5L756.8,87.5z M814.3,54.1
	c-9.7-9.5-23.5-14.3-41.3-14.3c-18.7,0-33.1,5.5-43.2,16.4c-10.1,10.9-15.1,26.6-15.1,47.1c0,19.8,5.5,35.1,16.3,45.8
	c10.9,10.7,26.2,16.1,45.9,16.1c9.5,0,17.6-0.6,24.4-1.9c6.8-1.3,13.3-3.6,19.7-6.9l-6.3-27.3c-4.6,1.9-9,3.3-13.2,4.3
	c-6,1.4-12.6,2.1-19.8,2.1c-7.9,0-14.1-1.9-18.6-5.8c-4.6-3.9-7-9.2-7.3-15.9h72.9V95.2C828.9,77.3,824,63.6,814.3,54.1"/>
<path id="path3388" inkscape:connector-curvature="0" fill="#0F0B0B" d="M188.7,87.5c0.6-6.6,2.5-11.5,5.7-14.6
	c3.2-3.1,7.3-4.6,12.1-4.6c5.2,0,9.4,1.7,12.5,5.2c3.1,3.5,4.7,8.2,4.9,14L188.7,87.5L188.7,87.5z M246.3,54.1
	c-9.7-9.5-23.5-14.3-41.3-14.3c-18.7,0-33.1,5.5-43.2,16.4c-10.1,10.9-15.1,26.6-15.1,47.1c0,19.8,5.4,35.1,16.3,45.8
	c10.9,10.7,26.2,16.1,45.9,16.1c9.5,0,17.6-0.6,24.4-1.9c6.8-1.3,13.3-3.6,19.7-6.9l-6.3-27.3c-4.6,1.9-9,3.3-13.2,4.3
	c-6,1.4-12.6,2.1-19.8,2.1c-7.9,0-14.1-1.9-18.6-5.8c-4.6-3.9-7-9.2-7.3-15.9h72.9V95.2C260.8,77.3,256,63.6,246.3,54.1"/>
</svg>
