<svg width="151" height="48" viewBox="0 0 151 48" fill="none" xmlns="http://www.w3.org/2000/svg">
<path d="M0 44.6582H29.3594V47.9886H0V44.6582Z" fill="black"/>
<path d="M0 38.2695H29.3594V41.6117H0V38.2695Z" fill="black"/>
<path d="M8.37598 31.8936H20.9692V35.2358H8.37598V31.8936Z" fill="black"/>
<path d="M8.37598 25.5166H20.9692V28.8588H8.37598V25.5166Z" fill="black"/>
<path d="M8.37598 19.1406H20.9692V22.4829H8.37598V19.1406Z" fill="black"/>
<path d="M8.37598 12.7529H20.9692V16.0952H8.37598V12.7529Z" fill="black"/>
<path d="M29.3594 6.37598H0V9.71822H29.3594V6.37598Z" fill="black"/>
<path d="M29.3594 0H0V3.34224H29.3594V0Z" fill="black"/>
<path d="M33.5469 41.6118H78.7003C79.463 40.5807 80.0313 39.4547 80.3755 38.2695H33.5469V41.6118Z" fill="black"/>
<path d="M75.1856 25.5166H41.9375V28.8588H78.7004C77.7431 27.5788 76.5615 26.4529 75.1856 25.5166Z" fill="black"/>
<path d="M41.9375 19.1406V22.4829H75.1856C76.5915 21.5466 77.773 20.4206 78.7004 19.1406H41.9375Z" fill="black"/>
<path d="M78.7004 6.37598H33.5469V9.71822H80.3755C79.9866 8.53302 79.4183 7.40718 78.7004 6.37598Z" fill="black"/>
<path d="M64.8208 0H33.5469V3.34224H75.6043C72.7925 1.27996 68.9787 0 64.8208 0Z" fill="black"/>
<path d="M54.5158 12.7529H41.9375V16.0952H54.5158V12.7529Z" fill="black"/>
<path d="M67.1094 16.0952H80.271C80.6449 15.0286 80.8393 13.9026 80.8393 12.7529H67.1094V16.0952Z" fill="black"/>
<path d="M41.9375 31.8936H54.5158V35.2358H41.9375V31.8936Z" fill="black"/>
<path d="M67.1094 31.8936V35.2358H80.8393C80.8393 34.0861 80.6449 32.9603 80.271 31.8936H67.1094Z" fill="black"/>
<path d="M33.5469 47.9649L64.8208 48.0004C69.0086 48.0004 72.7925 46.7205 75.6192 44.6582H33.5469V47.9649Z" fill="black"/>
<path d="M83.8906 44.6582H104.859V47.9886H83.8906V44.6582Z" fill="black"/>
<path d="M83.8906 38.2695H104.859V41.6117H83.8906V38.2695Z" fill="black"/>
<path d="M92.2666 31.8936H104.86V35.2358H92.2666V31.8936Z" fill="black"/>
<path d="M92.2666 25.5166H104.86V28.8588H92.2666V25.5166Z" fill="black"/>
<path d="M110.693 6.37598H83.8906V9.71822H112.143L110.693 6.37598Z" fill="black"/>
<path d="M107.91 0H83.8906V3.34224H109.361L107.91 0Z" fill="black"/>
<path d="M130.017 44.6582H151V47.9886H130.017V44.6582Z" fill="black"/>
<path d="M130.017 38.2695H151V41.6117H130.017V38.2695Z" fill="black"/>
<path d="M130.017 31.8936H142.61V35.2358H130.017V31.8936Z" fill="black"/>
<path d="M130.017 25.5166H142.61V28.8588H130.017V25.5166Z" fill="black"/>
<path d="M130.017 22.4829H142.61V19.1406H130.017H118.62L117.438 21.8429L116.257 19.1406H104.86H92.2666V22.4829H104.86V19.4132L106.191 22.4829H128.686L130.017 19.4132V22.4829Z" fill="black"/>
<path d="M142.609 12.7529H121.401L119.95 16.0952H142.609V12.7529Z" fill="black"/>
<path d="M126.98 0L125.529 3.34224H151V0H126.98Z" fill="black"/>
<path d="M117.438 47.9649L118.889 44.6582H115.987L117.438 47.9649Z" fill="black"/>
<path d="M114.656 41.6117H120.219L121.715 38.2695H113.175L114.656 41.6117Z" fill="black"/>
<path d="M111.829 35.2358H123.047L124.527 31.8936H110.349L111.829 35.2358Z" fill="black"/>
<path d="M109.017 28.8588H125.873L127.309 25.5166H107.566L109.017 28.8588Z" fill="black"/>
<path d="M92.2666 16.0952H114.926L113.475 12.7529H92.2666V16.0952Z" fill="black"/>
<path d="M122.747 9.71822H151V6.37598H124.183L122.747 9.71822Z" fill="black"/>
</svg>
