<?xml version="1.0" encoding="utf-8"?>
<!-- Generator: Adobe Illustrator 24.1.0, SVG Export Plug-In . SVG Version: 6.00 Build 0)  -->
<svg version="1.1" id="Layer_1" xmlns="http://www.w3.org/2000/svg" xmlns:xlink="http://www.w3.org/1999/xlink" x="0px" y="0px"
	 viewBox="0 0 420 168" style="enable-background:new 0 0 420 168;" xml:space="preserve">
<style type="text/css">
	.st0{fill-rule:evenodd;clip-rule:evenodd;fill:#1F70C1;}
</style>
<path class="st0" d="M0,0v11.5h81.8V0H0z M93.3,0v11.5h116.5c0,0-11.9-11.5-27.7-11.5H93.3z M232.7,0v11.5h70.5L299,0H232.7z
	 M353.7,0l-4.2,11.5h69.8V0H353.7z M0,22.4v11.5h81.8V22.4H0z M93.3,22.4v11.5h130c0,0-1.5-8.8-4.2-11.5H93.3z M232.7,22.4v11.5
	h78.2L307,22.4H232.7z M345.3,22.4l-3.9,11.5h77.9V22.4H345.3z M23.5,44.7v11.5h35.4V44.7H23.5z M116.8,44.7v11.5h35.4V44.7H116.8z
	 M186.7,44.7v11.5h35.4c0,0,2.2-6.1,2.2-11.5H186.7z M256.2,44.7v11.5H319l-4.2-11.5H256.2z M337.6,44.7l-4.2,11.5h63.1V44.7H337.6z
	 M23.5,67.1v11.5h35.4V67.1H23.5z M116.8,67.1v11.5h90.4c0,0,7.6-5.9,10-11.5H116.8z M256.2,67.1v11.5h35.4v-6.4l2.2,6.4h64.9
	l2.4-6.4v6.4h35.4V67.1H330l-3.5,9.7l-3.5-9.7H256.2z M23.5,89.4v11.5h35.4V89.4H23.5z M116.8,89.4v11.5h100.4
	c-2.4-5.6-10-11.5-10-11.5H116.8z M256.2,89.4v11.5h35.4V89.4H256.2z M298,89.4l4.3,11.5h48.6l4.1-11.5H298z M361.1,89.4v11.5h35.4
	V89.4H361.1z M23.5,111.8v11.5h35.4v-11.5H23.5z M116.8,111.8v11.5h35.4v-11.5H116.8z M186.7,111.8v11.5h37.7
	c0-5.4-2.2-11.5-2.2-11.5H186.7z M256.2,111.8v11.5h35.4v-11.5H256.2z M306.1,111.8l4.1,11.5h32.6l4.2-11.5H306.1z M361.1,111.8
	v11.5h35.4v-11.5H361.1z M0.6,134.1v11.5h81.8v-11.5L0.6,134.1z M93.3,134.1v11.5h125.9c2.6-2.6,4.2-11.5,4.2-11.5L93.3,134.1z
	 M233.3,134.1v11.5h58.3v-11.5L233.3,134.1z M314.1,134.1l4.3,11.5H335l4-11.5L314.1,134.1z M361.1,134.1v11.5H420v-11.5
	L361.1,134.1z M0.6,156.5V168h81.8v-11.5H0.6z M93.3,156.5V168h88.8c15.8,0,27.7-11.5,27.7-11.5H93.3z M233.3,156.5V168h58.3v-11.5
	H233.3z M322.2,156.5l4.1,11.5l0.7,0l4.2-11.5H322.2z M361.1,156.5V168H420v-11.5H361.1z"/>
</svg>
