<svg width="114" height="48" viewBox="0 0 114 48" fill="none" xmlns="http://www.w3.org/2000/svg">
<path d="M12.3038 31V26.104L14.9918 23.272L20.0078 31H23.2478L16.9358 21.304L22.9118 14.92H19.6238L14.5358 20.296L12.2078 22.936L12.3038 19.792V14.92H9.59181V31H12.3038ZM28.8282 31.24C32.2362 31.24 34.5402 28.792 34.5402 25.168C34.5402 21.52 32.2362 19.072 28.8282 19.072C25.4682 19.072 23.1642 21.52 23.1642 25.168C23.1642 28.792 25.4682 31.24 28.8282 31.24ZM28.8522 29.008C27.1242 29.008 25.9242 27.856 25.9242 25.168C25.9242 22.456 27.1242 21.304 28.8522 21.304C30.6042 21.304 31.8042 22.456 31.8042 25.168C31.8042 27.856 30.6042 29.008 28.8522 29.008ZM39.5806 31V14.92H36.8926V31H39.5806ZM47.3438 31.24C50.7518 31.24 53.0558 28.792 53.0558 25.168C53.0558 21.52 50.7518 19.072 47.3438 19.072C43.9838 19.072 41.6798 21.52 41.6798 25.168C41.6798 28.792 43.9838 31.24 47.3438 31.24ZM47.3678 29.008C45.6398 29.008 44.4398 27.856 44.4398 25.168C44.4398 22.456 45.6398 21.304 47.3678 21.304C49.1198 21.304 50.3198 22.456 50.3198 25.168C50.3198 27.856 49.1198 29.008 47.3678 29.008Z" fill="black"/>
<circle cx="90" cy="24" r="24" fill="#003CD4"/>
<path d="M108.571 19.75H105.686C105.645 18.6307 105.372 17.5317 104.886 16.521C104.399 15.5102 103.709 14.6092 102.857 13.8737V8.41667C102.857 8.15358 102.783 7.89568 102.644 7.67188C102.504 7.44808 102.305 7.26722 102.067 7.14956C101.83 7.0319 101.565 6.9821 101.3 7.00572C101.036 7.02935 100.784 7.12548 100.571 7.28333L95.2386 11.25H88.5714C80.7 11.25 75.0529 15.8414 74.36 22.5833H74.2857C73.9068 22.5833 73.5435 22.4341 73.2756 22.1684C73.0077 21.9027 72.8571 21.5424 72.8571 21.1667V18.3333H70V21.1667C70.0011 22.2935 70.453 23.3738 71.2565 24.1706C72.06 24.9674 73.1494 25.4155 74.2857 25.4167H74.3857C74.5929 27.2743 75.2017 29.0657 76.1706 30.6688C77.1395 32.2719 78.4456 33.6488 80 34.7057V39.5833C80 39.9591 80.1505 40.3194 80.4184 40.5851C80.6863 40.8507 81.0497 41 81.4286 41H87.1429C87.5217 41 87.8851 40.8507 88.153 40.5851C88.4209 40.3194 88.5714 39.9591 88.5714 39.5833V36.75H92.8571V39.5833C92.8571 39.9591 93.0077 40.3194 93.2756 40.5851C93.5435 40.8507 93.9068 41 94.2857 41H100C100.379 41 100.742 40.8507 101.01 40.5851C101.278 40.3194 101.429 39.9591 101.429 39.5833V34.8191C102.46 34.3339 103.363 33.6147 104.062 32.7196C104.762 31.8245 105.239 30.7787 105.456 29.6667H108.571C108.95 29.6667 109.314 29.5174 109.582 29.2517C109.849 28.9861 110 28.6257 110 28.25V21.1667C110 20.7909 109.849 20.4306 109.582 20.1649C109.314 19.8993 108.95 19.75 108.571 19.75ZM107.143 26.8333H103.034C102.599 30.7334 101.857 31.7704 98.5714 32.9463V38.1667H95.7143V33.9167H85.7143V38.1667H82.8571V33.0355C81.137 32.224 79.6858 30.9429 78.6737 29.3426C77.6616 27.7423 77.1306 25.889 77.1429 24C77.1429 17.1504 82.8829 14.0833 88.5714 14.0833H96.19L100 11.25V15.1827C103.454 17.8177 102.733 19.6962 102.883 22.5833H107.143V26.8333Z" fill="white"/>
<path d="M88.9408 28V24.916H88.0048V24.148H88.9408V23.164H88.0048V22.396H88.9408V19.432H90.1888L91.3288 22.396H92.7448V19.432H93.6928V22.396H94.6288V23.164H93.6928V24.148H94.6288V24.916H93.6928V28H92.4328L91.2928 24.916H89.8768V28H88.9408ZM89.8768 24.148H91.0048L90.6448 23.164H89.8528L89.8768 24.148ZM92.7448 26.308H92.7928L92.7568 24.916H92.2528L92.7448 26.308ZM89.8528 22.396H90.3568L89.8528 20.908H89.8048L89.8528 22.396ZM91.9648 24.148H92.7688L92.7448 23.164H91.6048L91.9648 24.148Z" fill="white"/>
</svg>
