<svg width="48" height="48" viewBox="0 0 48 48" fill="none" xmlns="http://www.w3.org/2000/svg">
<circle cx="24" cy="24" r="24" fill="white"/>
<path d="M42.5714 19.75H39.6857C39.6446 18.6307 39.3724 17.5317 38.8859 16.521C38.3994 15.5102 37.7089 14.6092 36.8571 13.8737V8.41667C36.8571 8.15358 36.7833 7.89568 36.6438 7.67188C36.5043 7.44808 36.3047 7.26722 36.0674 7.14956C35.8302 7.0319 35.5645 6.9821 35.3003 7.00572C35.036 7.02935 34.7837 7.12548 34.5714 7.28333L29.2386 11.25H22.5714C14.7 11.25 9.05286 15.8414 8.36 22.5833H8.28571C7.90683 22.5833 7.54347 22.4341 7.27556 22.1684C7.00765 21.9027 6.85714 21.5424 6.85714 21.1667V18.3333H4V21.1667C4.00113 22.2935 4.45303 23.3738 5.25651 24.1706C6.05999 24.9674 7.14942 25.4155 8.28571 25.4167H8.38571C8.59289 27.2743 9.20169 29.0657 10.1706 30.6688C11.1395 32.2719 12.4456 33.6488 14 34.7057V39.5833C14 39.9591 14.1505 40.3194 14.4184 40.5851C14.6863 40.8507 15.0497 41 15.4286 41H21.1429C21.5217 41 21.8851 40.8507 22.153 40.5851C22.4209 40.3194 22.5714 39.9591 22.5714 39.5833V36.75H26.8571V39.5833C26.8571 39.9591 27.0077 40.3194 27.2756 40.5851C27.5435 40.8507 27.9068 41 28.2857 41H34C34.3789 41 34.7422 40.8507 35.0102 40.5851C35.2781 40.3194 35.4286 39.9591 35.4286 39.5833V34.8191C36.4605 34.3339 37.3628 33.6147 38.0624 32.7196C38.762 31.8245 39.2393 30.7787 39.4557 29.6667H42.5714C42.9503 29.6667 43.3137 29.5174 43.5816 29.2517C43.8495 28.9861 44 28.6257 44 28.25V21.1667C44 20.7909 43.8495 20.4306 43.5816 20.1649C43.3137 19.8993 42.9503 19.75 42.5714 19.75ZM41.1429 26.8333H37.0343C36.5986 30.7334 35.8571 31.7704 32.5714 32.9463V38.1667H29.7143V33.9167H19.7143V38.1667H16.8571V33.0355C15.137 32.224 13.6858 30.9429 12.6737 29.3426C11.6616 27.7423 11.1306 25.889 11.1429 24C11.1429 17.1504 16.8829 14.0833 22.5714 14.0833H30.19L34 11.25V15.1827C37.4543 17.8177 36.7329 19.6962 36.8829 22.5833H41.1429V26.8333Z" fill="black"/>
<path d="M22.9408 28V24.916H22.0048V24.148H22.9408V23.164H22.0048V22.396H22.9408V19.432H24.1888L25.3288 22.396H26.7448V19.432H27.6928V22.396H28.6288V23.164H27.6928V24.148H28.6288V24.916H27.6928V28H26.4328L25.2928 24.916H23.8768V28H22.9408ZM23.8768 24.148H25.0048L24.6448 23.164H23.8528L23.8768 24.148ZM26.7448 26.308H26.7928L26.7568 24.916H26.2528L26.7448 26.308ZM23.8528 22.396H24.3568L23.8528 20.908H23.8048L23.8528 22.396ZM25.9648 24.148H26.7688L26.7448 23.164H25.6048L25.9648 24.148Z" fill="black"/>
</svg>
